<?xml version="1.0" encoding="UTF-8" standalone="no"?>
<svg
   xmlns:dc="http://purl.org/dc/elements/1.1/"
   xmlns:cc="http://creativecommons.org/ns#"
   xmlns:rdf="http://www.w3.org/1999/02/22-rdf-syntax-ns#"
   xmlns:svg="http://www.w3.org/2000/svg"
   xmlns="http://www.w3.org/2000/svg"
   xmlns:sodipodi="http://sodipodi.sourceforge.net/DTD/sodipodi-0.dtd"
   xmlns:inkscape="http://www.inkscape.org/namespaces/inkscape"
   height="508px"
   version="1.1"
   viewBox="0 0 777 508"
   width="777px"
   id="svg2"
   inkscape:version="0.91 r13725"
   sodipodi:docname="twitter.svg">
  <metadata
     id="metadata14">
    <rdf:RDF>
      <cc:Work
         rdf:about="">
        <dc:format>image/svg+xml</dc:format>
        <dc:type
           rdf:resource="http://purl.org/dc/dcmitype/StillImage" />
        <dc:title></dc:title>
      </cc:Work>
    </rdf:RDF>
  </metadata>
  <sodipodi:namedview
     pagecolor="#ffffff"
     bordercolor="#666666"
     borderopacity="1"
     objecttolerance="10"
     gridtolerance="10"
     guidetolerance="10"
     inkscape:pageopacity="0"
     inkscape:pageshadow="2"
     inkscape:window-width="1366"
     inkscape:window-height="734"
     id="namedview12"
     showgrid="false"
     inkscape:zoom="5.003861"
     inkscape:cx="-55.247625"
     inkscape:cy="285.53604"
     inkscape:window-x="0"
     inkscape:window-y="16"
     inkscape:window-maximized="0"
     inkscape:current-layer="svg2"
     showguides="true"
     inkscape:guide-bbox="true">
    <sodipodi:guide
       position="-90.605035,300.21817"
       orientation="0,1"
       id="guide4199" />
    <sodipodi:guide
       position="-86.518416,275.38222"
       orientation="0,1"
       id="guide4201" />
    <sodipodi:guide
       position="-45.467212,273.68647"
       orientation="1,0"
       id="guide4308" />
    <sodipodi:guide
       position="-83.460552,293.09867"
       orientation="1,0"
       id="guide4310" />
  </sodipodi:namedview>
  <desc
     id="desc6" />
  <defs
     id="defs8" />
  <rect
     style="fill:#0000ff;fill-rule:evenodd;stroke:#000000;stroke-width:1px;stroke-linecap:butt;stroke-linejoin:miter;stroke-opacity:1"
     id="rect4142"
     width="1905.7284"
     height="1119.1357"
     x="-294.15622"
     y="-278.41528"
     inkscape:export-filename="/home/max/projectM/newIcon/facebook.png"
     inkscape:export-xdpi="90"
     inkscape:export-ydpi="90" />
  <g
     id="g4425">
    <circle
       inkscape:export-ydpi="90"
       inkscape:export-xdpi="90"
       inkscape:export-filename="/home/max/projectM/newIcon/vk.png"
       r="32"
       cy="220.19759"
       cx="-43.317192"
       id="path4144"
       style="fill:#ffffff;fill-opacity:1" />
    <g
       transform="matrix(0.05114952,0,0,0.05114952,-63.346245,207.00905)"
       style="fill:#1c1c1c;fill-opacity:1;fill-rule:evenodd;stroke:none;stroke-width:1"
       id="Page-1">
      <path
         style="fill:#1c1c1c;fill-opacity:1"
         inkscape:connector-curvature="0"
         d="m 0.56800627,367.37229 c 0,0 30.58703273,51.6695 87.20744773,84.52966 64.237976,37.28128 112.801396,56.6528 182.946906,60.25165 70.14473,3.59424 108.18218,9.0624 208.28621,-28.2281 107.48805,-40.04352 143.04958,-91.10681 172.51932,-129.40851 29.47051,-38.30221 39.11808,-82.46528 39.11808,-82.46528 0,0 28.19234,0.12903 49.03814,-7.61856 25.12771,-9.33837 42.90496,-26.55334 42.90496,-26.55334 0,0 -25.27371,1.6896 -49.28722,-0.89907 -17.69449,-1.90772 -34.12486,-8.09319 -34.12486,-8.09319 0,0 32.05028,-1.8903 53.08269,-12.58957 19.12725,-9.73004 27.23664,-28.27008 27.23664,-28.27008 0,0 -17.34,6.17165 -36.49459,6.74458 -26.91339,0.80435 -54.4405,-3.59731 -54.4405,-3.59731 0,0 -5.68734,-39.62368 -44.36271,-91.780098 C 605.52237,47.2384 522.15479,48.194202 522.15479,48.194202 c 0,0 68.82128,-20.732621 65.23116,-32.65193 -3.58934,-11.9193037 -55.98883,5.617766 -55.98883,5.617766 0,0 22.09664,-19.7611721 15.40363,-20.1765884 C 535.8391,0.30309171 496.08779,18.968525 496.08779,18.968525 l 2.36972,-13.4887938 c 0,0 -61.55436,58.4787968 -87.44491,100.2098688 -22.92663,36.9536 -36.02065,76.43648 -36.02065,76.43648 l -56.87425,-41.3655 c 0,0 -165.88408,-99.816964 -202.85262,-81.83194 -36.968538,17.985024 64.45738,92.62285 64.45738,92.62285 0,0 -63.50949,-17.98503 -44.55167,23.38099 18.95861,41.3655 82.4681,53.95507 82.4681,53.95507 0,0 -61.61371,0 -45.49956,31.47367 16.11493,31.47366 85.31177,35.97004 85.31177,35.97004 0,0 -35.07275,10.79092 -24.64517,37.76871 10.4268,26.97728 57.82214,26.97779 57.82214,26.97779 0,0 -40.7601,41.3655 -125.12398,55.75322 C 81.140215,431.2192 0.56800627,367.37229 0.56800627,367.37229 Z"
         id="twitter" />
    </g>
  </g>
</svg>
